<svg width="24" height="24" fill="none" xmlns="http://www.w3.org/2000/svg"><path fill-rule="evenodd" clip-rule="evenodd" d="M17.5 19h1.75A2.755 2.755 0 0 0 22 16.25V5.75A2.755 2.755 0 0 0 19.25 3H4.75A2.755 2.755 0 0 0 2 5.75v10.5A2.755 2.755 0 0 0 4.75 19H6.5v-1.5H4.75c-.69 0-1.25-.56-1.25-1.25V5.75c0-.69.56-1.25 1.25-1.25h14.5c.69 0 1.25.56 1.25 1.25v10.5c0 .69-.56 1.25-1.25 1.25H17.5V19Zm-8.67 2.5h6.335c.495 0 .925-.275 1.135-.725.21-.45.14-.96-.18-1.335l-3.17-3.73c-.475-.56-1.43-.56-1.905 0l-3.17 3.73c-.315.375-.39.89-.18 1.335.21.445.64.725 1.135.725Z" fill="#202023"/></svg>