<svg width="24" height="24" fill="none" xmlns="http://www.w3.org/2000/svg"><path fill-rule="evenodd" clip-rule="evenodd" d="m12.93 7.125-2.38 4.125h4l-3.68 6.375-1.3-.75 2.38-4.125h-4l3.68-6.375 1.3.75ZM3.5 14.75v-5.5C3.5 8.56 4.06 8 4.75 8H9V6.5H4.75A2.755 2.755 0 0 0 2 9.25v5.5a2.755 2.755 0 0 0 2.75 2.75H8V16H4.75c-.69 0-1.25-.56-1.25-1.25Zm17-4.75v-.75a2.755 2.755 0 0 0-2.75-2.75H14.5V8h3.25c.69 0 1.25.56 1.25 1.25v5.5c0 .69-.56 1.25-1.25 1.25H13.5v1.5h4.25a2.755 2.755 0 0 0 2.75-2.75V14H22v-4h-1.5Z" fill="#202023"/></svg>