<svg width="24" height="24" fill="none" xmlns="http://www.w3.org/2000/svg"><path d="M7.925 5.705c.6 0 1.145.055 1.64.16.495.105.915.28 1.27.52s.625.56.82.96c.195.4.29.895.29 1.48 0 .635-.145 1.165-.43 1.585-.29.425-.715.77-1.28 1.04.775.225 1.355.615 1.735 1.17.38.56.575 1.23.575 2.02 0 .635-.125 1.185-.37 1.65-.245.465-.58.845-.995 1.135-.415.295-.895.51-1.43.655-.54.14-1.09.21-1.65.21H2V5.705h5.925ZM7.57 10.8c.495 0 .9-.115 1.215-.355.315-.235.475-.615.475-1.145 0-.295-.055-.535-.16-.725a1.125 1.125 0 0 0-.425-.44 1.77 1.77 0 0 0-.61-.22 4.268 4.268 0 0 0-.715-.06H4.76V10.8h2.81Zm.16 5.34c.27 0 .53-.025.775-.08s.465-.14.65-.265c.19-.125.34-.29.45-.5.11-.21.165-.48.165-.81 0-.645-.18-1.105-.545-1.385-.365-.275-.845-.415-1.445-.415H4.765v3.455H7.73Zm8.295-.265c.375.365.915.545 1.62.545.505 0 .94-.125 1.305-.38.365-.25.59-.52.67-.8h2.205c-.35 1.095-.895 1.875-1.62 2.345-.73.47-1.61.705-2.645.705-.715 0-1.365-.115-1.94-.345a4.04 4.04 0 0 1-1.465-.98c-.4-.425-.71-.93-.925-1.515-.22-.59-.325-1.235-.325-1.94 0-.705.11-1.315.335-1.905.225-.59.54-1.095.95-1.525.41-.43.9-.765 1.47-1.015.57-.245 1.2-.37 1.895-.37.775 0 1.45.15 2.025.45.575.3 1.05.705 1.42 1.21.37.505.635 1.08.8 1.73.165.645.225 1.32.175 2.025H15.4c.035.81.24 1.4.615 1.765h.01Zm2.83-4.795c-.3-.33-.755-.495-1.365-.495-.4 0-.73.07-.995.205a1.96 1.96 0 0 0-.635.5c-.16.2-.27.41-.335.635a2.783 2.783 0 0 0-.115.6h4.07c-.115-.635-.325-1.115-.625-1.445ZM14.98 6.34h5.09v1.41h-5.09V6.34Z" fill="#202023"/></svg>