<svg width="24" height="24" fill="none" xmlns="http://www.w3.org/2000/svg"><path fill-rule="evenodd" clip-rule="evenodd" d="M4.75 3.005h10a2.755 2.755 0 0 1 2.75 2.75v6.505a2.755 2.755 0 0 1-2.75 2.75H6.56l-2.425 2.425a1.249 1.249 0 0 1-1.365.27A1.254 1.254 0 0 1 2 16.55V5.755a2.755 2.755 0 0 1 2.75-2.75ZM19 7.505h.245a2.755 2.755 0 0 1 2.75 2.75v10.29a1.241 1.241 0 0 1-1.25 1.25c-.32 0-.64-.125-.88-.365l-1.925-1.925h-6.19A2.755 2.755 0 0 1 9 16.755V16.5h5.75A4.253 4.253 0 0 0 19 12.25V7.505Z" fill="#202023"/></svg>