<svg width="24" height="24" fill="none" xmlns="http://www.w3.org/2000/svg"><path fill-rule="evenodd" clip-rule="evenodd" d="M16.25 2.83a2.73 2.73 0 0 1 1.945.805h-.005l4.445 4.445-.2.465C20.66 12.69 17.32 16.02 13.51 17.45l-.45.17-3.56-3.56-3.5 3.5v1.51l-.745.71c-.46.46-1.085.72-1.755.72-.67 0-1.3-.255-1.77-.73S1 18.67 1 18c0-.67.26-1.3.73-1.77L14.305 3.635a2.73 2.73 0 0 1 1.945-.805Zm-7.435 8.425 4.615 4.615c3.115-1.315 5.84-4.05 7.425-7.455l-3.72-3.72a1.258 1.258 0 0 0-1.77 0l-6.55 6.56ZM17.25 6.5a1 1 0 1 1-2 0 1 1 0 0 1 2 0Z" fill="#202023"/></svg>