<svg width="24" height="24" fill="none" xmlns="http://www.w3.org/2000/svg"><path fill-rule="evenodd" clip-rule="evenodd" d="M19.28 11.715 17.565 10H22v5.25c0 .69-.56 1.25-1.25 1.25H14V8.75c0-1.24-1.01-2.25-2.25-2.25H11V3.25c0-.69.56-1.25 1.25-1.25h8.5c.69 0 1.25.56 1.25 1.25v5.24h-4.435l1.715-1.715-1.06-1.06-2.645 2.645a1.258 1.258 0 0 0 0 1.77l2.645 2.645 1.06-1.06ZM3.25 7.5h8.5c.69 0 1.25.56 1.25 1.25v12.01c0 .69-.56 1.25-1.25 1.25h-8.5c-.69 0-1.25-.56-1.25-1.25v-5.25h4.435L4.72 17.225l1.06 1.06 2.645-2.645a1.258 1.258 0 0 0 0-1.77L5.78 11.225l-1.06 1.06L6.435 14H2V8.75c0-.69.56-1.25 1.25-1.25Z" fill="#202023"/></svg>