<svg width="24" height="24" fill="none" xmlns="http://www.w3.org/2000/svg"><path fill-rule="evenodd" clip-rule="evenodd" d="M18.25 11A6.259 6.259 0 0 0 12 17.25c0 .99.235 1.92.645 2.75H4.75A2.755 2.755 0 0 1 2 17.25V6.75A2.755 2.755 0 0 1 4.75 4h14.5A2.755 2.755 0 0 1 22 6.75v5.51A6.223 6.223 0 0 0 18.25 11ZM3.5 7.5v2h17v-2h-17Zm10 9.75a4.748 4.748 0 0 1 4.75-4.75A4.748 4.748 0 0 1 23 17.25 4.748 4.748 0 0 1 18.25 22a4.748 4.748 0 0 1-4.75-4.75Zm4 2.29c.32 0 .64-.12.885-.365l3.145-3.145-1.06-1.06-2.97 2.97-1.22-1.22-1.06 1.06 1.395 1.395c.245.245.565.365.885.365Z" fill="#202023"/></svg>