<svg width="24" height="24" fill="none" xmlns="http://www.w3.org/2000/svg"><path fill-rule="evenodd" clip-rule="evenodd" d="M5.038 10h.712a2.75 2.75 0 0 1 2.75 2.75v1.5A2.75 2.75 0 0 1 6 16.989v.761c0 .69.56 1.25 1.25 1.25h2.378a2.25 2.25 0 0 1 2.122-1.5h.5a2.25 2.25 0 0 1 0 4.5h-.5a2.25 2.25 0 0 1-2.122-1.5H7.25a2.75 2.75 0 0 1-2.75-2.75V17h-1v-6.25A8.748 8.748 0 0 1 12.25 2 8.748 8.748 0 0 1 21 10.75V17h-2.25A2.75 2.75 0 0 1 16 14.25v-1.5A2.75 2.75 0 0 1 18.75 10h.712a7.248 7.248 0 0 0-7.212-6.5A7.248 7.248 0 0 0 5.038 10Z" fill="#202023"/></svg>