<svg width="24" height="24" fill="none" xmlns="http://www.w3.org/2000/svg"><path d="M19.5 18.25c0 .69-.56 1.25-1.25 1.25H5.75c-.69 0-1.25-.56-1.25-1.25V5.75c0-.69.56-1.25 1.25-1.25h7.75V3H5.75A2.755 2.755 0 0 0 3 5.75v12.5A2.755 2.755 0 0 0 5.75 21h12.5A2.755 2.755 0 0 0 21 18.25v-7.755h-1.5v7.755Z" fill="#202023"/><path d="M21.27 2.73C20.8 2.26 20.17 2 19.5 2c-.67 0-1.295.26-1.765.73L9.05 11.39l-.54 3.24a.754.754 0 0 0 .74.875c.04 0 .085 0 .125-.01l3.22-.555 8.675-8.67c.47-.47.73-1.1.73-1.77 0-.67-.26-1.295-.73-1.77Z" fill="#202023"/></svg>