<svg width="24" height="24" fill="none" xmlns="http://www.w3.org/2000/svg"><path fill-rule="evenodd" clip-rule="evenodd" d="M15.395 5h5.355c.69 0 1.25.56 1.25 1.25v11.5c0 .69-.56 1.25-1.25 1.25h-5.355c-.33 1.15-1.39 2-2.645 2h-8A2.755 2.755 0 0 1 2 18.25V5.75A2.755 2.755 0 0 1 4.75 3h8c1.26 0 2.315.85 2.645 2ZM5 17.25a.749.749 0 1 0 1.5 0 .749.749 0 1 0-1.5 0Zm0-3a.749.749 0 1 0 1.5 0 .749.749 0 1 0-1.5 0Zm0-3a.749.749 0 1 0 1.5 0 .749.749 0 1 0-1.5 0Zm3 6a.749.749 0 1 0 1.5 0 .749.749 0 1 0-1.5 0Zm0-3a.749.749 0 1 0 1.5 0 .749.749 0 1 0-1.5 0Zm0-3a.749.749 0 1 0 1.5 0 .749.749 0 1 0-1.5 0Zm3 6a.749.749 0 1 0 1.5 0 .749.749 0 1 0-1.5 0Zm0-3a.749.749 0 1 0 1.5 0 .749.749 0 1 0-1.5 0Zm0-3a.749.749 0 1 0 1.5 0 .749.749 0 1 0-1.5 0ZM5 9h7.5V6H5v3Zm10.5 8.5h5v-11h-5v11Zm2-5H19V16h-1.5v-3.5Z" fill="#202023"/></svg>