<svg width="24" height="24" fill="none" xmlns="http://www.w3.org/2000/svg"><path fill-rule="evenodd" clip-rule="evenodd" d="M15 2H8.719a3.719 3.719 0 0 0-1.992 6.86 3.719 3.719 0 0 0 0 6.28 3.719 3.719 0 1 0 5.711 3.141v-3.585a3.719 3.719 0 1 0 4.554-5.836 3.718 3.718 0 0 0 .638-5.77A3.719 3.719 0 0 0 15 2Zm-2.562 10a2.562 2.562 0 1 0 5.124 0 2.562 2.562 0 0 0-5.124 0Zm-1.157 3.719H8.719a2.562 2.562 0 1 0 2.562 2.562v-2.562ZM8.719 8.281h2.562V3.157H8.719a2.562 2.562 0 0 0 0 5.124Zm0 1.157a2.562 2.562 0 0 0 0 5.124h2.562V9.438H8.719ZM15 3.157h-2.562v5.124H15a2.562 2.562 0 0 0 0-5.124Z" fill="#202023"/></svg>