<svg width="24" height="24" fill="none" xmlns="http://www.w3.org/2000/svg"><path fill-rule="evenodd" clip-rule="evenodd" d="M8.525 11.25h6.945C15.255 6.415 13.02 3.285 12 2.1c-1.02 1.19-3.255 4.335-3.475 9.15Zm13.44 0h-4.99c-.17-4.24-1.745-7.295-2.985-9.05a10.013 10.013 0 0 1 7.975 9.05ZM13.99 21.8c1.235-1.755 2.815-4.81 2.985-9.05h4.99a10.013 10.013 0 0 1-7.975 9.05Zm-5.459-9.05h6.945c-.22 4.815-2.455 7.96-3.475 9.15-1.02-1.185-3.255-4.315-3.47-9.15Zm-1.505-1.5c.17-4.24 1.75-7.295 2.985-9.05a10.009 10.009 0 0 0-7.97 9.05h4.985Zm-4.985 1.5h4.99c.17 4.24 1.745 7.295 2.985 9.05a10.013 10.013 0 0 1-7.975-9.05Z" fill="#202023"/></svg>