<svg width="24" height="24" fill="none" xmlns="http://www.w3.org/2000/svg"><path fill-rule="evenodd" clip-rule="evenodd" d="M20.375 4.69 18.52 6.545A8.439 8.439 0 0 1 20.5 12c0 5.515-4.485 10-10 10-2.285 0-4.43-.75-6.215-2.165l-.66-.525 1.855-1.855A8.439 8.439 0 0 1 3.5 12c0-5.515 4.485-10 10-10 2.285 0 4.43.75 6.215 2.165l.66.525ZM11.5 16.5V18c2.48 0 4.5-2.02 4.5-4.5S13.98 9 11.5 9c-.615 0-1.22.125-1.775.365A3 3 0 0 1 12.5 7.5V6C10.02 6 8 8.02 8 10.5s2.02 4.5 4.5 4.5c.615 0 1.22-.125 1.775-.365A3 3 0 0 1 11.5 16.5Zm-1.914-5.305A2.956 2.956 0 0 1 11.5 10.5c1.415 0 2.6.985 2.915 2.305a2.956 2.956 0 0 1-1.915.695c-1.415 0-2.6-.985-2.915-2.305Z" fill="#202023"/></svg>