<svg width="24" height="24" fill="none" xmlns="http://www.w3.org/2000/svg"><path fill-rule="evenodd" clip-rule="evenodd" d="M15.635 4.675C14.69 4.63 14.405 4.62 12 4.62c-2.4 0-2.685.01-3.635.055-.57.005-1.135.11-1.67.31a2.999 2.999 0 0 0-1.71 1.71c-.2.535-.305 1.1-.31 1.67C4.63 9.31 4.62 9.6 4.62 12c0 2.4.01 2.685.055 3.635.005.57.11 1.135.31 1.67a2.999 2.999 0 0 0 1.71 1.71c.535.2 1.1.305 1.67.31.945.04 1.235.05 3.635.05 2.4 0 2.685-.005 3.635-.05a4.891 4.891 0 0 0 1.67-.31 2.999 2.999 0 0 0 1.71-1.71c.2-.535.305-1.1.31-1.67.04-.945.05-1.235.05-3.635 0-2.4-.005-2.685-.05-3.635a4.891 4.891 0 0 0-.31-1.67 2.999 2.999 0 0 0-1.71-1.71c-.535-.2-1.1-.305-1.67-.31ZM8.29 3.055C9.25 3.01 9.555 3 12 3v.005c2.445 0 2.75.01 3.71.055.745.015 1.485.16 2.185.42a4.597 4.597 0 0 1 2.635 2.63c.265.7.405 1.44.42 2.185.045.96.055 1.265.055 3.71 0 2.445-.01 2.75-.055 3.71a6.672 6.672 0 0 1-.42 2.185 4.62 4.62 0 0 1-2.635 2.635c-.7.265-1.44.405-2.185.42-.96.045-1.265.055-3.71.055-2.445 0-2.75-.01-3.71-.055a6.672 6.672 0 0 1-2.185-.42A4.62 4.62 0 0 1 3.47 17.9a6.545 6.545 0 0 1-.42-2.185c-.045-.96-.055-1.265-.055-3.71 0-2.445.01-2.75.055-3.71.015-.745.16-1.485.42-2.185a4.62 4.62 0 0 1 2.635-2.635c.7-.265 1.44-.405 2.185-.42Zm8.515 5.22a1.08 1.08 0 1 0 0-2.16 1.08 1.08 0 0 0 0 2.16ZM12 7.38c-2.55 0-4.62 2.07-4.62 4.62 0 2.55 2.07 4.62 4.62 4.62 2.55 0 4.62-2.07 4.62-4.62 0-2.55-2.07-4.62-4.62-4.62ZM12 15c-1.655 0-3-1.345-3-3s1.345-3 3-3 3 1.345 3 3-1.345 3-3 3Z" fill="#202023"/></svg>