<svg width="24" height="24" fill="none" xmlns="http://www.w3.org/2000/svg"><path fill-rule="evenodd" clip-rule="evenodd" d="M20 9.5h-6.25c-.69 0-1.25-.56-1.25-1.25V2H4v10h16V9.5Zm-6-7.06V8h5.56L14 2.44ZM9.5 22H11v-3h2.25c.69 0 1.25-.56 1.25-1.25v-3c0-.69-.56-1.25-1.25-1.25H9.5V22Zm3.5-4.5h-2V15h2v2.5Zm3.75 4.5c-.69 0-1.25-.56-1.25-1.25v-6c0-.69.56-1.25 1.25-1.25h2.5c.69 0 1.25.56 1.25 1.25V16H19v-1h-2v5.5h2V19h-1v-1.5h2.5v3.25c0 .69-.56 1.25-1.25 1.25h-2.5Zm-12 0h2.5c.69 0 1.25-.56 1.25-1.25V13.5H4V15h3v5.5H5v-2H3.5v2.25c0 .69.56 1.25 1.25 1.25Z" fill="#202023"/></svg>