<svg width="24" height="24" fill="none" xmlns="http://www.w3.org/2000/svg"><path fill-rule="evenodd" clip-rule="evenodd" d="M10.82 15.02a2.8 2.8 0 0 0 1.18.265 2.71 2.71 0 0 0 1.18-.265l8.19-3.89c.44-.21.715-.64.715-1.13 0-.49-.275-.92-.715-1.13l-8.19-3.89a2.748 2.748 0 0 0-2.36 0L2.63 8.87c-.44.21-.715.64-.715 1.13 0 .49.275.92.715 1.13l8.19 3.89Zm.645 2.645c.34.16.73.16 1.07 0L22 13.17v1.66l-8.82 4.19a2.783 2.783 0 0 1-1.18.265 2.71 2.71 0 0 1-1.18-.265L2 14.83v-1.66l9.465 4.495Z" fill="#202023"/></svg>