<svg width="24" height="24" fill="none" xmlns="http://www.w3.org/2000/svg"><path fill-rule="evenodd" clip-rule="evenodd" d="M14.55 11.25H20v-4A5.256 5.256 0 0 0 14.75 2 5.256 5.256 0 0 0 9.5 7.25v.86c2.075.34 3.87 1.5 5.05 3.14ZM8.25 9.5A6.259 6.259 0 0 0 2 15.75 6.259 6.259 0 0 0 8.25 22a6.259 6.259 0 0 0 6.25-6.25A6.259 6.259 0 0 0 8.25 9.5Zm-1.97 9.28-1.06-1.06 5-5 1.06 1.06-5 5ZM14.75 22c-.56 0-1.095-.09-1.6-.25a7.74 7.74 0 0 0 2.245-9H20v4A5.256 5.256 0 0 1 14.75 22Z" fill="#202023"/></svg>