<svg width="24" height="24" fill="none" xmlns="http://www.w3.org/2000/svg"><path d="M11.965 2C6.425 2.04 1.96 6.545 2 12.065a9.993 9.993 0 0 0 6.31 9.215 9.423 9.423 0 0 1 0-2.855l1.185-5a3.6 3.6 0 0 1-.27-1.43c0-1.385.81-2.43 1.815-2.43.695-.01 1.27.545 1.28 1.24 0 .065 0 .125-.01.19 0 .855-.545 2.145-.83 3.33a1.431 1.431 0 0 0 1.49 1.81c1.775 0 3.155-1.88 3.155-4.58A3.956 3.956 0 0 0 12.29 7.48h-.36a4.334 4.334 0 0 0-4.525 4.14v.205c-.01.815.245 1.615.715 2.28a.31.31 0 0 1 .07.285c-.08.315-.25 1-.28 1.135-.03.135-.15.22-.335.135-1.255-.585-2.035-2.405-2.035-3.88 0-3.15 2.3-6.05 6.63-6.05 3.475 0 6.185 2.47 6.185 5.78s-2.15 6.215-5.21 6.215c-.91.03-1.775-.4-2.3-1.145l-.625 2.38c-.3.925-.72 1.805-1.245 2.62.975.285 1.985.425 3.005.415 5.54 0 10.035-4.475 10.035-10S17.51 2 11.965 2Z" fill="#202023"/></svg>