<svg width="24" height="24" fill="none" xmlns="http://www.w3.org/2000/svg"><path d="M17.105 6.07A6.27 6.27 0 0 0 11.25 2a6.256 6.256 0 0 0-6.24 5.91A4.974 4.974 0 0 0 2 12.5c0 2.755 2.245 5 5 5h1.785L7.58 19.915l1.34.67 1.545-3.085h4.825l-1.205 2.415 1.34.67 1.57-3.14c2.82-.365 5.01-2.78 5.01-5.695a5.71 5.71 0 0 0-4.895-5.68h-.005Zm.976 12.346-1.999 3.998 1.342.671 1.999-3.998-1.342-.67Z" fill="#202023"/><path d="m11.58 18.42-2 3.998 1.342.67 2-3.997-1.343-.671Zm-6.502-.001-2 3.997 1.342.671 2-3.997-1.342-.671Z" fill="#202023"/></svg>