<svg width="24" height="24" fill="none" xmlns="http://www.w3.org/2000/svg"><path fill-rule="evenodd" clip-rule="evenodd" d="M3.25 3h9.5c.69 0 1.25.56 1.25 1.25v2c0 .69-.56 1.25-1.25 1.25h-9.5C2.56 7.5 2 6.94 2 6.25v-2C2 3.56 2.56 3 3.25 3Zm17.5 6.75h-12c-.69 0-1.25.56-1.25 1.25v2c0 .69.56 1.25 1.25 1.25h12c.69 0 1.25-.56 1.25-1.25v-2c0-.69-.56-1.25-1.25-1.25ZM9.25 16.5h-6c-.69 0-1.25.56-1.25 1.25v2c0 .69.56 1.25 1.25 1.25h6c.69 0 1.25-.56 1.25-1.25v-2c0-.69-.56-1.25-1.25-1.25Z" fill="#000"/></svg>