<svg width="24" height="24" fill="none" xmlns="http://www.w3.org/2000/svg"><path fill-rule="evenodd" clip-rule="evenodd" d="M5.25 2h13.5c.69 0 1.25.56 1.25 1.25V10c0 .69-.56 1.25-1.25 1.25H5.25C4.56 11.25 4 10.69 4 10V3.25C4 2.56 4.56 2 5.25 2ZM7 7.25h4v-1.5H7v1.5Zm8-.75c0 .55.45 1 1 1s1-.45 1-1-.45-1-1-1-1 .45-1 1Zm-9.75 6.25h13.5c.69 0 1.25.56 1.25 1.25v6.75c0 .69-.56 1.25-1.25 1.25H5.25C4.56 22 4 21.44 4 20.75V14c0-.69.56-1.25 1.25-1.25ZM7 18.25h4v-1.5H7v1.5Zm8-.75c0 .55.45 1 1 1s1-.45 1-1-.45-1-1-1-1 .45-1 1Z" fill="#202023"/></svg>