<svg width="24" height="24" fill="none" xmlns="http://www.w3.org/2000/svg"><path fill-rule="evenodd" clip-rule="evenodd" d="M13.75 8h-1.5c0-1.24-1.01-2.25-2.25-2.25v-1.5c1.24 0 2.25-1.01 2.25-2.25h1.5c0 1.24 1.01 2.25 2.25 2.25v1.5c-1.24 0-2.25 1.01-2.25 2.25ZM10 10.25c-1.79 0-3.25-1.46-3.25-3.25h-1.5c0 1.79-1.46 3.25-3.25 3.25v1.5c1.79 0 3.25 1.46 3.25 3.25h1.5c0-1.79 1.46-3.25 3.25-3.25v-1.5Zm12 5A5.256 5.256 0 0 1 16.75 10h-1.5A5.256 5.256 0 0 1 10 15.25v1.5A5.256 5.256 0 0 1 15.25 22h1.5A5.256 5.256 0 0 1 22 16.75v-1.5Z" fill="#202023"/></svg>