<svg width="24" height="24" fill="none" xmlns="http://www.w3.org/2000/svg"><path fill-rule="evenodd" clip-rule="evenodd" d="M12 2C7.305 2 3.5 3.41 3.5 5.16v3.16c0 1.745 3.805 3.16 8.5 3.16s8.5-1.41 8.5-3.16V5.16C20.5 3.415 16.695 2 12 2Zm0 5.265c-4.835 0-7.44-1.495-7.44-2.105 0-.61 2.605-2.105 7.44-2.105 4.835 0 7.44 1.495 7.44 2.105 0 .61-2.605 2.105-7.44 2.105ZM3.5 15.61v3.23C3.5 20.585 7.305 22 12 22s8.5-1.41 8.5-3.16v-3.23c-1.68 1.43-5.1 2.18-8.5 2.18-3.4 0-6.82-.745-8.5-2.18Zm0-2.035v-3.23c1.68 1.435 5.1 2.18 8.5 2.18 3.4 0 6.82-.75 8.5-2.18v3.23c0 1.75-3.805 3.16-8.5 3.16s-8.5-1.415-8.5-3.16Z" fill="#202023"/></svg>