<svg width="24" height="24" fill="none" xmlns="http://www.w3.org/2000/svg"><path d="M20.775 7.005c-1.14 0-2.2-.38-3.045-1.015a5.038 5.038 0 0 1-1.915-3.045 4.884 4.884 0 0 1-.1-.945H12.45v13.81a2.962 2.962 0 0 1-2.035 2.805 2.85 2.85 0 0 1-1.095.145 2.93 2.93 0 0 1-1.355-.415 2.943 2.943 0 0 1-1.445-2.49 2.959 2.959 0 0 1 3.89-2.85v-3.31c-.31-.045-.62-.07-.945-.07-1.805 0-3.495.75-4.705 2.105a6.134 6.134 0 0 0 .28 8.46 6.264 6.264 0 0 0 4.425 1.815 6.26 6.26 0 0 0 4.43-1.815 6.124 6.124 0 0 0 1.835-4.35l-.015-7.3c.56.435 1.175.79 1.835 1.07 1.025.435 2.11.65 3.225.65V7.01h-.01l.01-.005Z" fill="#202023"/></svg>