<svg width="24" height="24" fill="none" xmlns="http://www.w3.org/2000/svg"><path fill-rule="evenodd" clip-rule="evenodd" d="M16 4.75V5h5v1.5H3V5h5v-.25A2.755 2.755 0 0 1 10.75 2h2.5A2.755 2.755 0 0 1 16 4.75ZM9.5 5h5v-.25c0-.69-.56-1.25-1.25-1.25h-2.5c-.69 0-1.25.56-1.25 1.25V5ZM4 19.25V8h16v11.25A2.755 2.755 0 0 1 17.25 22H6.75A2.755 2.755 0 0 1 4 19.25Zm10.22-1.47 1.06-1.06-2.22-2.22 2.22-2.22-1.06-1.06L12 13.44l-2.22-2.22-1.06 1.06 2.22 2.22-2.22 2.22 1.06 1.06L12 15.56l2.22 2.22Z" fill="#202023"/></svg>