<svg width="24" height="24" fill="none" xmlns="http://www.w3.org/2000/svg"><path fill-rule="evenodd" clip-rule="evenodd" d="M20.5 5.5a3.5 3.5 0 1 1-7 0 3.5 3.5 0 0 1 7 0Zm-10 5.5a3.5 3.5 0 1 1-7 0 3.5 3.5 0 0 1 7 0Zm1.58 8.74-.46-1.705A2.75 2.75 0 0 0 8.965 16H5.03a2.75 2.75 0 0 0-2.655 2.035l-.46 1.705c-.17.635.31 1.26.965 1.26h8.235a1 1 0 0 0 .965-1.26Zm9.54-7.205.46 1.705h-.005a1 1 0 0 1-.965 1.26h-8.23a1.002 1.002 0 0 1-.965-1.26l.46-1.705A2.75 2.75 0 0 1 15.03 10.5h3.935a2.75 2.75 0 0 1 2.655 2.035Z" fill="#202023"/></svg>