<svg width="24" height="24" fill="none" xmlns="http://www.w3.org/2000/svg"><path d="M17.75 7.75A4.253 4.253 0 0 0 13.5 12c0 1.05.385 2.01 1.015 2.75h-5.03c.63-.74 1.015-1.7 1.015-2.75a4.253 4.253 0 0 0-4.25-4.25A4.253 4.253 0 0 0 2 12a4.253 4.253 0 0 0 4.25 4.25h11.5A4.253 4.253 0 0 0 22 12a4.253 4.253 0 0 0-4.25-4.25ZM3.5 12a2.755 2.755 0 0 1 2.75-2.75A2.755 2.755 0 0 1 9 12a2.755 2.755 0 0 1-2.75 2.75A2.755 2.755 0 0 1 3.5 12Zm14.25 2.75A2.755 2.755 0 0 1 15 12a2.755 2.755 0 0 1 2.75-2.75A2.755 2.755 0 0 1 20.5 12a2.755 2.755 0 0 1-2.75 2.75Z" fill="#202023"/></svg>