<svg width="24" height="24" fill="none" xmlns="http://www.w3.org/2000/svg"><path fill-rule="evenodd" clip-rule="evenodd" d="m17.217 3.278 1.06-1.061 4 3.999-1.062 1.06-3.998-3.998ZM3 13c0-4.96 4.04-9 9-9s9 4.04 9 9-4.04 9-9 9-9-4.04-9-9Zm1.5 0c0 4.135 3.365 7.5 7.5 7.5 4.134 0 7.5-3.365 7.5-7.5S16.134 5.5 12 5.5c-4.135 0-7.5 3.365-7.5 7.5ZM5.715 2.22l-3.998 4 1.06 1.06 4-3.999-1.062-1.06ZM12 11.94l2.72-2.72 1.06 1.06L13.06 13l2.72 2.72-1.06 1.06L12 14.06l-2.72 2.72-1.06-1.06L10.94 13l-2.72-2.72 1.06-1.06L12 11.94Z" fill="#202023"/></svg>