<svg width="24" height="24" fill="none" xmlns="http://www.w3.org/2000/svg"><path fill-rule="evenodd" clip-rule="evenodd" d="m19.69 5.75-2.72-2.72 1.06-1.06 3.647 3.646a1.25 1.25 0 0 1 0 1.768L18.03 11.03l-1.06-1.06 2.72-2.72h-6.362a1.25 1.25 0 0 0-.883.366l-4.329 4.329A2.763 2.763 0 0 1 8.06 12c.02.018.038.037.057.056l4.329 4.328c.234.234.552.366.883.366h6.361l-2.72-2.72 1.061-1.06 3.647 3.646a1.25 1.25 0 0 1 0 1.768L18.03 22.03l-1.06-1.06 2.72-2.72h-6.362a2.75 2.75 0 0 1-1.944-.805l-4.329-4.329a1.25 1.25 0 0 0-.883-.366H2v-1.5h4.172c.331 0 .649-.132.883-.366l4.329-4.329a2.75 2.75 0 0 1 1.944-.805h6.361Z" fill="#202023"/></svg>