<svg width="24" height="24" fill="none" xmlns="http://www.w3.org/2000/svg"><path d="M15.5 11.5v6H14v-6h1.5Z" fill="#202023"/><path fill-rule="evenodd" clip-rule="evenodd" d="M5 7.5h-.75A2.248 2.248 0 0 1 2 5.25 2.248 2.248 0 0 1 4.25 3h15.5A2.248 2.248 0 0 1 22 5.25a2.248 2.248 0 0 1-2.25 2.25H19v10.75A2.75 2.75 0 0 1 16.25 21h-8.5A2.75 2.75 0 0 1 5 18.25V7.5ZM3.5 5.25c0-.416.334-.75.75-.75H5V6h-.75a.748.748 0 0 1-.75-.75ZM19 6h.75c.416 0 .75-.334.75-.75a.748.748 0 0 0-.75-.75H19V6Zm-1.5-1.5h-7v15h5.75c.69 0 1.25-.56 1.25-1.25V4.5Zm-9 0h-2v13.75c0 .69.56 1.25 1.25 1.25h.75v-15Z" fill="#202023"/></svg>