<svg width="24" height="24" fill="none" xmlns="http://www.w3.org/2000/svg"><path fill-rule="evenodd" clip-rule="evenodd" d="M14.5 2h-3.965l-4.44 2.774-.482 1.933L2 8.255v4.131L3.73 17H7.5v-1.648l3.51-.78 1.93 1.928h1.195l.5 2.5h4.717L22 12.906v-2.85l-2.5-4.5V3.849l-2.54-1.694-1.48 2.955-.981-.736V2ZM7.404 5.726 10.965 3.5H13v1.625l3.019 2.264 1.522-3.044.459.306v1.293l2.5 4.5v2.15L18.368 17.5h-2.503l-.5-2.5H13.56l-2.072-2.072L6 14.149V15.5H4.77L3.5 12.114v-2.87l3.387-1.451.517-2.067Z" fill="#202023"/><path d="M18.964 20H15.11l.86 2h1.993l1-2Z" fill="#202023"/></svg>