<svg width="24" height="24" fill="none" xmlns="http://www.w3.org/2000/svg"><path fill-rule="evenodd" clip-rule="evenodd" d="M16.67 6.53H8.115a.705.705 0 0 1-.7-.702 3.169 3.169 0 0 1 3.164-3.165h3.627a3.169 3.169 0 0 1 3.165 3.165.694.694 0 0 1-.701.702Zm3.115 4.995H5.002a.686.686 0 0 1-.684-.684V9.797a2.14 2.14 0 0 1 2.14-2.138h11.856a2.14 2.14 0 0 1 2.139 2.138v1.044a.662.662 0 0 1-.668.684Zm-15.467 1.13h16.15c1.062 0 1.917.873 1.917 1.933a1.943 1.943 0 0 1-1.933 1.934H14.72a2.387 2.387 0 0 0-2.343-1.934 2.37 2.37 0 0 0-2.328 1.934H4.318a1.942 1.942 0 0 1-1.933-1.934c0-1.06.872-1.933 1.933-1.933Zm15.449 4.996h-5.013v3.866h3.763a1.943 1.943 0 0 0 1.934-1.933v-1.232a.68.68 0 0 0-.684-.701Zm-15.466.7c0-.392.325-.7.701-.7h4.996v3.866H6.234a1.942 1.942 0 0 1-1.933-1.933v-1.232Z" fill="#202023"/></svg>