<svg width="24" height="24" fill="none" xmlns="http://www.w3.org/2000/svg"><path fill-rule="evenodd" clip-rule="evenodd" d="M20.5 5.5h-17v13h11V20H2V4h20v4h-1.5V5.5Zm-15 2h8V9h-8V7.5Zm5 3h-5V12h5v-1.5ZM18.75 9A4.253 4.253 0 0 1 23 13.25a4.244 4.244 0 0 1-1.5 3.235v5.48l-2.75-1.375L16 21.965v-5.48a4.244 4.244 0 0 1-1.5-3.235A4.253 4.253 0 0 1 18.75 9Zm0 9.91 1.25.625V17.31c-.395.125-.815.19-1.25.19-.435 0-.855-.07-1.25-.19v2.225l1.25-.625ZM16 13.25A2.755 2.755 0 0 0 18.75 16a2.755 2.755 0 0 0 2.75-2.75 2.755 2.755 0 0 0-2.75-2.75A2.755 2.755 0 0 0 16 13.25Z" fill="#202023"/></svg>