<svg width="24" height="24" fill="none" xmlns="http://www.w3.org/2000/svg"><path fill-rule="evenodd" clip-rule="evenodd" d="M2.77 17.7c.155.065.32.095.48.095l.005-.005c.32 0 .64-.125.88-.365L6.56 15h8.19a2.755 2.755 0 0 0 2.75-2.75v-6.5A2.755 2.755 0 0 0 14.75 3h-10A2.755 2.755 0 0 0 2 5.75v10.795c0 .51.3.96.77 1.155ZM3.5 5.75c0-.69.56-1.25 1.25-1.25h10c.69 0 1.25.56 1.25 1.25v6.5c0 .69-.56 1.25-1.25 1.25H5.94L3.5 15.94V5.75Zm16.365 15.68c.24.24.56.365.885.365v.005A1.245 1.245 0 0 0 22 20.55V10.255a2.755 2.755 0 0 0-2.75-2.75H19v1.5h.25c.69 0 1.25.56 1.25 1.25v9.69l-1.94-1.94h-6.81c-.69 0-1.25-.56-1.25-1.25V16.5H9v.255a2.755 2.755 0 0 0 2.75 2.75h6.19l1.925 1.925Z" fill="#202023"/></svg>