<svg width="24" height="24" fill="none" xmlns="http://www.w3.org/2000/svg"><path fill-rule="evenodd" clip-rule="evenodd" d="M4.75 3h14.495a2.755 2.755 0 0 1 2.75 2.75v9.505a2.755 2.755 0 0 1-2.75 2.75h-7.69L8.13 21.43c-.235.24-.555.365-.88.365A1.245 1.245 0 0 1 6 20.545V18H4.75A2.755 2.755 0 0 1 2 15.25v-9.5A2.755 2.755 0 0 1 4.75 3Zm14.5 13.5c.69 0 1.25-.56 1.25-1.25v-9.5c0-.69-.56-1.25-1.25-1.25H4.75c-.69 0-1.25.56-1.25 1.25v9.5c0 .69.56 1.25 1.25 1.25H7.5v3.44l3.44-3.44h8.31ZM12 9.44l2.22-2.22 1.06 1.06-2.22 2.22 2.22 2.22-1.06 1.06L12 11.56l-2.22 2.22-1.06-1.06 2.22-2.22-2.22-2.22 1.06-1.06L12 9.44Z" fill="#202023"/></svg>