<svg width="24" height="24" fill="none" xmlns="http://www.w3.org/2000/svg"><path fill-rule="evenodd" clip-rule="evenodd" d="M12 22C6.485 22 2 17.515 2 12S6.485 2 12 2s10 4.485 10 10-4.485 10-10 10Zm0-18.5c-4.685 0-8.5 3.815-8.5 8.5 0 4.685 3.815 8.5 8.5 8.5 4.685 0 8.5-3.815 8.5-8.5 0-4.685-3.815-8.5-8.5-8.5Zm2.53 12.53-1.06-1.06L16.44 12l-2.97-2.97 1.06-1.06 3.145 3.145c.485.485.485 1.28 0 1.77L14.53 16.03Zm-8.205-3.145L9.47 16.03l1.06-1.06L7.56 12l2.97-2.97-1.06-1.06-3.145 3.145a1.258 1.258 0 0 0 0 1.77Z" fill="#202023"/></svg>