<svg width="24" height="24" fill="none" xmlns="http://www.w3.org/2000/svg"><path fill-rule="evenodd" clip-rule="evenodd" d="M18.25 3H5.75A2.755 2.755 0 0 0 3 5.75v12.5A2.755 2.755 0 0 0 5.75 21h12.5A2.755 2.755 0 0 0 21 18.25V5.75A2.755 2.755 0 0 0 18.25 3ZM5.75 4.5h12.5c.69 0 1.25.56 1.25 1.25V7.5h-15V5.75c0-.69.56-1.25 1.25-1.25ZM19.5 18.25c0 .69-.56 1.25-1.25 1.25H5.75c-.69 0-1.25-.56-1.25-1.25V9h15v9.25ZM6.72 11.78l2.47 2.47-2.47 2.47 1.06 1.06 3.53-3.53-3.53-3.53-1.06 1.06ZM12 16h5v1.5h-5V16Z" fill="#202023"/></svg>