<svg width="24" height="24" fill="none" xmlns="http://www.w3.org/2000/svg"><path fill-rule="evenodd" clip-rule="evenodd" d="M5.75 4.5c-.69 0-1.25.56-1.25 1.25V16.5h9V18h-10v.25c0 .69.56 1.25 1.25 1.25h8.75V21H4.75A2.755 2.755 0 0 1 2 18.25V16.5h1V5.75A2.755 2.755 0 0 1 5.75 3h12.5A2.755 2.755 0 0 1 21 5.75V9.5h-1.5V5.75c0-.69-.56-1.25-1.25-1.25H5.75Zm10.5 6.5h4.5c.69 0 1.25.56 1.25 1.25v8.5c0 .69-.56 1.25-1.25 1.25h-4.5c-.69 0-1.25-.56-1.25-1.25v-8.5c0-.69.56-1.25 1.25-1.25Zm.25 9.5h4v-8h-4v8Z" fill="#202023"/></svg>