<svg width="24" height="24" fill="none" xmlns="http://www.w3.org/2000/svg"><path fill-rule="evenodd" clip-rule="evenodd" d="M7.5 5.015c-2.21 0-4 1.79-4 4 0 .94.321 1.801.864 2.485H7.8l.686-1.994a.75.75 0 0 1 1.393-.063l1.69 3.77.591-1.713H16V13h-2.77l-.861 2.495a.75.75 0 0 1-1.393.062l-1.69-3.768L8.87 13H3.693l-.222-.24A5.48 5.48 0 0 1 2 9.016a5.498 5.498 0 0 1 10-3.157 5.498 5.498 0 0 1 10 3.157 5.489 5.489 0 0 1-1.61 3.89L12 21.295 5.735 15.03l1.06-1.06L12 19.174l7.33-7.33a3.99 3.99 0 0 0 1.17-2.829 3.998 3.998 0 0 0-7.789-1.272.75.75 0 0 1-1.422 0A3.993 3.993 0 0 0 7.5 5.015Z" fill="#202023"/></svg>