<svg width="24" height="24" fill="none" xmlns="http://www.w3.org/2000/svg"><path d="M6.5 11.25a.75.75 0 1 1-1.5 0 .75.75 0 0 1 1.5 0ZM5.75 15a.75.75 0 1 0 0-1.5.75.75 0 0 0 0 1.5Zm.75 2.25a.75.75 0 1 1-1.5 0 .75.75 0 0 1 1.5 0ZM10 15h3.5v-1.5H10V15Z" fill="#202023"/><path fill-rule="evenodd" clip-rule="evenodd" d="M15.5 18.25V18h5.25c.69 0 1.25-.56 1.25-1.25v-8.5C22 7.56 21.44 7 20.75 7H15.5V5.75A2.75 2.75 0 0 0 12.75 3h-8A2.75 2.75 0 0 0 2 5.75v12.5A2.75 2.75 0 0 0 4.75 21h8a2.75 2.75 0 0 0 2.75-2.75ZM4.75 4.5c-.69 0-1.25.56-1.25 1.25v12.5c0 .69.56 1.25 1.25 1.25h8c.69 0 1.25-.56 1.25-1.25V18H8.25C7.56 18 7 17.44 7 16.75V9H5V6h7.5v1H14V5.75c0-.69-.56-1.25-1.25-1.25h-8Zm3.75 7v5h12v-5h-12Zm0-1.5h12V8.5h-12V10Z" fill="#202023"/></svg>