<svg width="24" height="24" fill="none" xmlns="http://www.w3.org/2000/svg"><path fill-rule="evenodd" clip-rule="evenodd" d="M2 12c0 5.515 4.485 10 10 10s10-4.485 10-10S17.515 2 12 2 2 6.485 2 12Zm1.5 0c0-4.685 3.815-8.5 8.5-8.5 4.685 0 8.5 3.815 8.5 8.5 0 4.685-3.815 8.5-8.5 8.5-4.685 0-8.5-3.815-8.5-8.5ZM17 9.5a1.5 1.5 0 1 1-3 0 1.5 1.5 0 0 1 3 0Zm-5 7c-1.6 0-3.095-.86-3.895-2.25l1.3-.75c.535.925 1.53 1.5 2.6 1.5s2.065-.575 2.6-1.5l1.3.75a4.517 4.517 0 0 1-3.895 2.25H12ZM6.5 9H10v1.5H6.5V9Z" fill="#202023"/></svg>