<svg width="24" height="24" fill="none" xmlns="http://www.w3.org/2000/svg"><path fill-rule="evenodd" clip-rule="evenodd" d="M2 12c0 5.515 4.485 10 10 10s10-4.485 10-10S17.515 2 12 2 2 6.485 2 12Zm1.5 0c0-4.685 3.815-8.5 8.5-8.5 4.685 0 8.5 3.815 8.5 8.5 0 4.685-3.815 8.5-8.5 8.5-4.685 0-8.5-3.815-8.5-8.5ZM17 9.5a1.5 1.5 0 1 1-3 0 1.5 1.5 0 0 1 3 0ZM8.5 11a1.5 1.5 0 1 0 0-3 1.5 1.5 0 0 0 0 3Zm-.395 3.25A4.506 4.506 0 0 0 12 16.5h.01c1.6 0 3.095-.865 3.895-2.25l-1.3-.75a3.011 3.011 0 0 1-2.6 1.5 3.011 3.011 0 0 1-2.6-1.5l-1.3.75Z" fill="#202023"/></svg>