<svg width="24" height="24" fill="none" xmlns="http://www.w3.org/2000/svg"><path fill-rule="evenodd" clip-rule="evenodd" d="M2.77 19.45c.155.065.32.095.48.095v-.005c.32 0 .64-.125.88-.365L11.305 12 4.13 4.825a1.237 1.237 0 0 0-1.36-.27C2.305 4.75 2 5.205 2 5.71v12.585c0 .51.3.96.77 1.155ZM9.19 12 3.5 17.69V6.31L9.19 12Zm4.58 7.45c.155.065.32.095.48.095v-.005c.32 0 .64-.125.88-.365L22.305 12 15.13 4.825a1.237 1.237 0 0 0-1.36-.27c-.465.195-.77.65-.77 1.155v12.585c0 .51.3.96.77 1.155ZM20.19 12l-5.69 5.69V6.31L20.19 12Z" fill="#202023"/></svg>