<svg width="24" height="24" fill="none" xmlns="http://www.w3.org/2000/svg"><path fill-rule="evenodd" clip-rule="evenodd" d="M19.25 21.005H4.75A2.755 2.755 0 0 1 2 18.255v-12.5a2.755 2.755 0 0 1 2.75-2.75h4.81l2.5 2.5h7.19A2.755 2.755 0 0 1 22 8.255v10a2.755 2.755 0 0 1-2.75 2.75Zm-14.5-16.5c-.69 0-1.25.56-1.25 1.25v12.5c0 .69.56 1.25 1.25 1.25h14.5c.69 0 1.25-.56 1.25-1.25V8.25c0-.69-.56-1.25-1.25-1.25h-7.81l-2.5-2.5H4.75v.005Zm9.78 13.025-1.06-1.06 2.97-2.97-2.97-2.97 1.06-1.06 3.145 3.145c.485.485.485 1.28 0 1.77L14.53 17.53Zm-8.205-3.145L9.47 17.53l1.06-1.06-2.97-2.97 2.97-2.97-1.06-1.06-3.145 3.145a1.258 1.258 0 0 0 0 1.77Z" fill="#202023"/></svg>