<svg width="24" height="24" fill="none" xmlns="http://www.w3.org/2000/svg"><path d="M11.25 9v2.701l-2.34-1.35-.75 1.299L10.5 13l-2.34 1.35.75 1.3 2.34-1.351V17h1.5v-2.701l2.34 1.35.75-1.298L13.5 13l2.34-1.35-.75-1.3-2.34 1.351V9h-1.5Z" fill="#202023"/><path fill-rule="evenodd" clip-rule="evenodd" d="M4.75 3A2.75 2.75 0 0 0 2 5.75v12.5A2.75 2.75 0 0 0 4.75 21h14.5A2.75 2.75 0 0 0 22 18.25v-10a2.75 2.75 0 0 0-2.75-2.75h-7.19L9.56 3H4.75ZM3.5 5.75c0-.69.56-1.25 1.25-1.25h4.19l2.5 2.5h7.81c.69 0 1.25.56 1.25 1.25v10c0 .69-.56 1.25-1.25 1.25H4.75c-.69 0-1.25-.56-1.25-1.25V5.75Z" fill="#202023"/></svg>