<svg width="24" height="24" fill="none" xmlns="http://www.w3.org/2000/svg"><path d="M17.75 4v1.5a2.755 2.755 0 0 1 2.75 2.75v4.265a4.231 4.231 0 0 0-6.13.67 6.783 6.783 0 0 0-4.74 0 4.231 4.231 0 0 0-6.13-.67V8.25A2.755 2.755 0 0 1 6.25 5.5V4A4.253 4.253 0 0 0 2 8.25v7.5A4.253 4.253 0 0 0 6.25 20a4.253 4.253 0 0 0 4.07-5.47 5.292 5.292 0 0 1 3.36 0A4.253 4.253 0 0 0 17.75 20 4.253 4.253 0 0 0 22 15.75v-7.5A4.253 4.253 0 0 0 17.75 4ZM6.25 18.5a2.755 2.755 0 0 1-2.75-2.75A2.755 2.755 0 0 1 6.25 13 2.755 2.755 0 0 1 9 15.75a2.755 2.755 0 0 1-2.75 2.75Zm11.5 0A2.755 2.755 0 0 1 15 15.75 2.755 2.755 0 0 1 17.75 13a2.755 2.755 0 0 1 2.75 2.75 2.755 2.755 0 0 1-2.75 2.75Z" fill="#202023"/></svg>