<svg width="24" height="24" fill="none" xmlns="http://www.w3.org/2000/svg"><path fill-rule="evenodd" clip-rule="evenodd" d="M2 5.25C2 4.56 2.56 4 3.25 4h17.5c.69 0 1.25.56 1.25 1.25v13.5c0 .69-.56 1.25-1.25 1.25H3.25C2.56 20 2 19.44 2 18.75V5.25Zm1.5.25v13h17v-13h-17Zm5.25 3a1.25 1.25 0 1 0 0 2.5 1.25 1.25 0 0 0 0-2.5ZM6 9.75a2.75 2.75 0 1 1 5.5 0 2.75 2.75 0 0 1-5.5 0Zm.501 6.498A1.25 1.25 0 0 1 7.751 15H9.75c.69 0 1.248.558 1.25 1.248V17h1.5l-.001-.754a2.75 2.75 0 0 0-2.75-2.745H7.75A2.75 2.75 0 0 0 5 16.246v.753L6.5 17l.001-.753ZM19 11h-5.5V9.5H19V11Zm-5.5 3.5h4V13h-4v1.5Z" fill="#000"/></svg>