<svg width="24" height="24" fill="none" xmlns="http://www.w3.org/2000/svg"><path fill-rule="evenodd" clip-rule="evenodd" d="M12.5 3.505h-7V12H4V2h9.56L20 8.44V12h-1.5V9.5h-4.75c-.69 0-1.25-.56-1.25-1.25V3.505ZM17.44 8 14 4.56V8h3.44ZM9.5 13.5h3.75c.69 0 1.25.56 1.25 1.25v3c0 .69-.56 1.25-1.25 1.25H11v3H9.5v-8.5Zm1.5 4h2V15h-2v2.5Zm9.5-1.5v-1.25c0-.69-.56-1.25-1.25-1.25h-2.5c-.69 0-1.25.56-1.25 1.25v6c0 .69.56 1.25 1.25 1.25h2.5c.69 0 1.25-.56 1.25-1.25V17.5H18V19h1v1.5h-2V15h2v1h1.5ZM7 15H4v-1.5h4.5v7.25c0 .69-.56 1.25-1.25 1.25h-2.5c-.69 0-1.25-.56-1.25-1.25V18.5H5v2h2V15Z" fill="#202023"/></svg>