<svg width="24" height="24" fill="none" xmlns="http://www.w3.org/2000/svg"><path fill-rule="evenodd" clip-rule="evenodd" d="M13 2H8.5v1.5H13V2Zm4.25 7h-1.64a2.235 2.235 0 0 0-1.36-1.36V4.5h-7V15h7v-3.14a2.235 2.235 0 0 0 1.36-1.36h1.64c.69 0 1.25.56 1.25 1.25v8.75h-14V22h14.25c.69 0 1.25-.56 1.25-1.25v-9A2.755 2.755 0 0 0 17.25 9Zm-8.5 4.5V6h4v1.64c-.87.31-1.5 1.135-1.5 2.11 0 .975.63 1.8 1.5 2.11v1.64h-4Zm4.75-3a.749.749 0 1 1 0-1.5.749.749 0 1 1 0 1.5Zm-5 5.5H13v1.5H8.5V16Z" fill="#202023"/></svg>