<svg width="24" height="24" fill="none" xmlns="http://www.w3.org/2000/svg"><path d="M19.19 8.875a2.185 2.185 0 1 0 0-4.37 2.185 2.185 0 0 0 0 4.37ZM11.165 7h-8.33A.836.836 0 0 0 2 7.835v8.335c0 .46.375.835.835.835h8.335c.46 0 .835-.375.835-.835V7.835A.836.836 0 0 0 11.17 7h-.005Zm-1.68 3.11h-1.87v5.01H6.39v-5.01H4.51V8.88h4.975v1.23Z" fill="#202023"/><path d="M13 7.835v.805a2.915 2.915 0 1 0-3.29-2.89c0 .085.006.165.016.25h1.445c1.01 0 1.835.82 1.835 1.835H13ZM16.69 9.5H13v6.665c0 1.01-.82 1.835-1.836 1.835h-3.26c.03.085.05.17.08.25.09.215.19.425.31.625a4.997 4.997 0 0 0 9.325-2.5v-5.94c0-.52-.42-.94-.94-.94l.01.005Zm4.37 0h-2.69c.16.285.25.6.25.935v5.94a5.88 5.88 0 0 1-.274 1.79 3.122 3.122 0 0 0 3.645-3.08v-4.65c0-.52-.42-.94-.94-.94l.01.005Z" fill="#202023"/></svg>