<svg width="24" height="24" fill="none" xmlns="http://www.w3.org/2000/svg"><path fill-rule="evenodd" clip-rule="evenodd" d="m12 1.725 8.075 2.16c.545.15.925.645.925 1.21v8.18a6.768 6.768 0 0 1-3.375 5.845L12 22.37l-5.625-3.25A6.768 6.768 0 0 1 3 13.275v-8.18c0-.565.38-1.065.925-1.21L12 1.725Zm4.875 16.09A5.26 5.26 0 0 0 19.5 13.27V5.285L12 3.275l-7.5 2.01v7.985a5.26 5.26 0 0 0 2.625 4.545L12 20.63l4.875-2.815ZM8.221 8.78l1.06-1.06L12 10.44l2.72-2.72 1.06 1.06-2.72 2.72 2.72 2.72-1.06 1.06L12 12.56l-2.72 2.72-1.06-1.06 2.72-2.72-2.72-2.72Z" fill="#202023"/></svg>