<svg width="24" height="24" fill="none" xmlns="http://www.w3.org/2000/svg"><path fill-rule="evenodd" clip-rule="evenodd" d="M20.6 7.5c.39 0 .75.18.99.49.235.31.315.705.215 1.085l-2.65 9.89a2.75 2.75 0 0 1-2.655 2.04h-9c-1.24 0-2.335-.84-2.655-2.04l-2.65-9.89A1.24 1.24 0 0 1 2.41 7.99c.235-.31.6-.49.99-.49h2.29l5.425-5.425a1.258 1.258 0 0 1 1.77 0L18.31 7.5h2.29Zm-4.41 0L12 3.31 7.81 7.5h8.38Zm.31 12c.565 0 1.06-.38 1.205-.925h.005L20.275 9H3.725l2.57 9.575c.145.545.64.925 1.205.925h9Zm-8-6h7V15h-7v-1.5Z" fill="#202023"/></svg>