<svg width="24" height="24" fill="none" xmlns="http://www.w3.org/2000/svg"><path fill-rule="evenodd" clip-rule="evenodd" d="M5.75 3A2.75 2.75 0 0 0 3 5.75v12.5A2.75 2.75 0 0 0 5.75 21h12.5A2.75 2.75 0 0 0 21 18.25V5.75A2.75 2.75 0 0 0 18.25 3H5.75ZM4.5 5.75c0-.69.56-1.25 1.25-1.25h12.5c.69 0 1.25.56 1.25 1.25v12.5c0 .69-.56 1.25-1.25 1.25H5.75c-.69 0-1.25-.56-1.25-1.25V5.75Zm3 6.25a4.5 4.5 0 1 1 9 0 4.5 4.5 0 0 1-9 0ZM12 6a6 6 0 1 0 0 12 6 6 0 0 0 0-12Zm-2 7a1 1 0 1 0 0-2 1 1 0 0 0 0 2Zm5-1a1 1 0 1 1-2 0 1 1 0 0 1 2 0Z" fill="#202023"/></svg>