<svg width="24" height="24" fill="none" xmlns="http://www.w3.org/2000/svg"><path fill-rule="evenodd" clip-rule="evenodd" d="M13.75 8h-1.5c0-1.24-1.01-2.25-2.25-2.25v-1.5c1.24 0 2.25-1.01 2.25-2.25h1.5c0 1.24 1.01 2.25 2.25 2.25v1.5c-1.24 0-2.25 1.01-2.25 2.25Zm-.74-2.25h-.015l.015.01v-.01Zm-.015-1.5h.015l-.015-.01v.01Zm-2.995 6c-1.79 0-3.25-1.46-3.25-3.25h-1.5c0 1.79-1.46 3.25-3.25 3.25v1.5c1.79 0 3.25 1.46 3.25 3.25h1.5c0-1.79 1.46-3.25 3.25-3.25v-1.5Zm-4 2.2A4.775 4.775 0 0 0 4.55 11 4.775 4.775 0 0 0 6 9.55c.37.58.865 1.075 1.45 1.45-.58.37-1.075.865-1.45 1.45Zm16 2.8A5.256 5.256 0 0 1 16.75 10h-1.5A5.256 5.256 0 0 1 10 15.25v1.5A5.256 5.256 0 0 1 15.25 22h1.5A5.256 5.256 0 0 1 22 16.75v-1.5Zm-6 3.67A6.777 6.777 0 0 0 13.08 16 6.777 6.777 0 0 0 16 13.08 6.777 6.777 0 0 0 18.92 16 6.777 6.777 0 0 0 16 18.92Z" fill="#202023"/></svg>