<svg width="24" height="24" fill="none" xmlns="http://www.w3.org/2000/svg"><path fill-rule="evenodd" clip-rule="evenodd" d="M6.5 2a2.5 2.5 0 1 0 0 5 2.5 2.5 0 0 0 0-5Zm-1 2.5a1 1 0 1 1 2 0 1 1 0 0 1-2 0Z" fill="#202023"/><path d="M3.5 16.5v-7h6v7H11V9.25C11 8.56 10.44 8 9.75 8h-6.5C2.56 8 2 8.56 2 9.25v7.25h1.5Z" fill="#202023"/><path d="M4.5 22v-7.5H6V22H4.5ZM7 14.5V22h1.5v-7.5H7Zm8.826-5-1.851 6.943-1.45-.386 1.901-7.13A1.25 1.25 0 0 1 15.634 8h3.732c.566 0 1.062.38 1.208.928l1.9 7.129-1.449.386L19.174 9.5h-3.348Z" fill="#202023"/><path fill-rule="evenodd" clip-rule="evenodd" d="M17.5 2a2.5 2.5 0 1 0 0 5 2.5 2.5 0 0 0 0-5Zm-1 2.5a1 1 0 1 1 2 0 1 1 0 0 1-2 0Z" fill="#202023"/><path d="M15.5 22v-7.5H17V22h-1.5Zm2.5-7.5V22h1.5v-7.5H18Z" fill="#202023"/></svg>